<svg xmlns="http://www.w3.org/2000/svg" xmlns:xlink="http://www.w3.org/1999/xlink" version="1.1" x="0px" y="0px" viewBox="0 0 99 123.75" style="enable-background:new 0 0 99 99;" xml:space="preserve"><g><path d="M33.9,60.7h-0.7c-0.6,0-1,0.4-1,1s0.4,1,1,1h0.7c0.6,0,1-0.4,1-1S34.5,60.7,33.9,60.7z"/><path d="M43.1,60.7h-5.6c-0.6,0-1,0.4-1,1s0.4,1,1,1h5.6c0.6,0,1-0.4,1-1S43.7,60.7,43.1,60.7z"/><path d="M70.8,60.7H47.1c-0.6,0-1,0.4-1,1s0.4,1,1,1h23.7c0.6,0,1-0.4,1-1S71.4,60.7,70.8,60.7z"/><path d="M96.9,60.7h-2.8L93,32.4c0-0.5-0.5-1-1-1H79.8c-0.5,0-1,0.4-1,1l-0.3,8.4C73.7,29.9,60.9,25,49.4,25c-0.2,0-0.3,0-0.5,0   c-11.4,0.1-23.5,5-28,15.4l-0.3-8.1c0-0.5-0.5-1-1-1H7.4c-0.5,0-1,0.4-1,1L5.3,60.7H1.8c-0.6,0-1,0.4-1,1s0.4,1,1,1h4.5h14.3h8.9   c0.6,0,1-0.4,1-1s-0.4-1-1-1h-7.9l-0.3-9.2h56.9l-0.3,9.2h-2.9c-0.6,0-1,0.4-1,1s0.4,1,1,1h3.9h14.3h3.8c0.6,0,1-0.4,1-1   S97.5,60.7,96.9,60.7z M78.2,46.5h-7.5V33.9C74.5,37,77.3,41.2,78.2,46.5z M53.7,46.5V27.2c2.5,0.3,5.1,0.8,7.5,1.6v17.7H53.7z    M62.2,29.2c2.7,1,5.3,2.3,7.5,3.9v13.4h-7.5V29.2z M48.9,27c1.2,0,2.5,0,3.8,0.1v19.4h-7.4V27.2C46.5,27.1,47.7,27,48.9,27z    M28.3,46.5V33.9c2.2-1.8,4.7-3.3,7.5-4.4v17H28.3z M36.8,29.1c2.4-0.9,4.9-1.5,7.5-1.8v19.2h-7.5V29.1z M27.3,34.8v11.7h-6.1   C21.9,41.6,24.1,37.7,27.3,34.8z M7.3,60.7l1-27.3h10.3l0.6,17c0,0,0,0,0,0.1c0,0,0,0.1,0,0.1l0.3,10.1H7.3z M78.2,49.5h-57l0-1   h57.1L78.2,49.5C78.2,49.5,78.2,49.5,78.2,49.5z M79.8,60.7l0.4-13.1c0,0,0-0.1,0-0.1c0,0,0,0,0-0.1l0.5-14H91l1,27.3H79.8z"/><path d="M13.5,39.4c-0.6,0-1,0.4-1,1v1.9c0,0.6,0.4,1,1,1s1-0.4,1-1v-1.9C14.5,39.8,14.1,39.4,13.5,39.4z"/><path d="M85.9,39.4c-0.6,0-1,0.4-1,1v1.9c0,0.6,0.4,1,1,1s1-0.4,1-1v-1.9C86.9,39.8,86.5,39.4,85.9,39.4z"/></g></svg>