<svg xmlns="http://www.w3.org/2000/svg" xmlns:xlink="http://www.w3.org/1999/xlink" version="1.1" x="0px" y="0px" viewBox="0 0 269.3 336.625" style="enable-background:new 0 0 269.3 269.3;" xml:space="preserve"><g><path d="M261.8,182.3h-3.6c4.1-14.7,8-32.5,8.9-55.2c0.1-1.7-0.9-3.2-2.5-3.9c-22.1-9.1-44-6.8-66.9,7.1   c-12.3-26.1-30.6-47.5-53.3-62c-13.3-8.4-27.4-14.2-42-17.2c0,0-0.1,0-0.1,0c-0.1,0-0.2,0-0.3,0c-0.1,0-0.2,0-0.3,0   c-0.1,0-0.1,0-0.2,0c-0.1,0-0.2,0-0.3,0c-0.1,0-0.1,0-0.2,0c0,0-0.1,0-0.1,0c-0.1,0-0.1,0-0.2,0c-0.1,0-0.2,0.1-0.3,0.1   c-0.1,0-0.2,0.1-0.3,0.1c0,0-0.1,0-0.1,0.1c-0.1,0-0.2,0.1-0.3,0.1c-0.1,0.1-0.2,0.1-0.3,0.2c0,0-0.1,0.1-0.1,0.1   c-0.1,0.1-0.2,0.1-0.2,0.2C99,51.9,99,52,98.9,52.1c0,0-0.1,0.1-0.1,0.1c0,0-0.1,0-0.1,0.1c0,0-0.1,0.1-0.1,0.1   c-0.1,0.1-0.1,0.1-0.2,0.2c0,0.1-0.1,0.1-0.1,0.2c-0.1,0.1-0.1,0.2-0.1,0.2c0,0.1-0.1,0.2-0.1,0.2c0,0.1-0.1,0.1-0.1,0.2   c0,0.1-0.1,0.2-0.1,0.3c0,0.1-0.1,0.2-0.1,0.3c0,0,0,0.1,0,0.1c0,0,0,0.1,0,0.1c0,0.1,0,0.2,0,0.3c0,0.1,0,0.2,0,0.3   c0,0.1,0,0.1,0,0.2c0,0.1,0,0.2,0,0.3c0,0.1,0,0.1,0,0.2l5.1,38.2c-13.5-5.9-26.5-9.3-39.5-10.1c-0.1,0-0.2,0-0.3,0   c-0.1,0-0.2,0-0.3,0c-0.1,0-0.2,0-0.3,0c0,0,0,0,0,0c-2.1,0.2-3.6,2-3.5,4.1l0.9,21c-19.3-5.7-40.5-7-54.6-5c0,0,0,0,0,0   c0,0,0,0,0,0c0,0-0.1,0-0.1,0c-0.1,0-0.2,0.1-0.4,0.1c-0.1,0-0.2,0-0.3,0.1c0,0-0.1,0-0.1,0.1c0,0-0.1,0-0.1,0   c-0.1,0-0.1,0.1-0.2,0.1c-0.1,0-0.2,0.1-0.3,0.1c0,0-0.1,0.1-0.1,0.1c-0.1,0.1-0.2,0.1-0.3,0.2c-0.1,0.1-0.2,0.1-0.2,0.2   c0,0-0.1,0.1-0.1,0.1c-0.1,0.1-0.2,0.2-0.2,0.3c-0.1,0.1-0.1,0.1-0.2,0.2c0,0-0.1,0.1-0.1,0.1c-0.1,0.1-0.1,0.2-0.2,0.3   c0,0,0,0.1,0,0.1c0,0-0.1,0.1-0.1,0.1c0,0,0,0,0,0c0,0,0,0.1,0,0.1c-0.1,0.1-0.1,0.2-0.1,0.3c0,0.1-0.1,0.2-0.1,0.3   c0,0,0,0.1,0,0.1c0,0.1,0,0.2-0.1,0.4c0,0.1,0,0.2,0,0.3c0,0,0,0.1,0,0.1c0,0.1,0,0.3,0,0.4c0,0.1,0,0.2,0,0.3c0,0,0,0,0,0   c0,0,0,0.1,0,0.1c0,0.1,0.1,0.2,0.1,0.4c0,0.1,0,0.2,0.1,0.3c0,0,0,0.1,0.1,0.1c0,0,0,0.1,0,0.1l17.1,41l-7.3,13   c-1.5,0.4-2.9,0.8-4.3,1.2c-0.2,0-0.5,0.1-0.7,0.2c-2.1,0.8-3.1,3.1-2.3,5.2l2.6,6.8l0.4,11.3c0.1,2.2,1.8,3.9,4,3.9   c0,0,0.1,0,0.1,0c2.2-0.1,3.9-1.9,3.9-4.1l-0.2-5.1h123.4l16.4,7.4c0,0,0,0,0,0c0.2,0.1,0.4,0.2,0.7,0.2c0,0,0.1,0,0.1,0   c0.2,0,0.3,0,0.5,0.1c0.1,0,0.2,0,0.3,0c0,0,0,0,0,0h105.1c2.2,0,4-1.8,4-4S264,182.3,261.8,182.3z M157.6,182.3l-16.4-7.4   c0,0,0,0,0,0c-0.1-0.1-0.3-0.1-0.5-0.2c-0.1,0-0.2-0.1-0.3-0.1c-0.1,0-0.2,0-0.3,0c-0.2,0-0.3,0-0.5-0.1c0,0,0,0,0,0h-9.9   c6-20.5,4.5-41.6-4.7-65.9c3-2,6.7-4.3,9.5-6c0.1,0,0.1-0.1,0.2-0.2c13.4,23.1,22.2,49.6,26.6,79.7H157.6z M14.7,174.4l-1.2-3.3   c14.1-3.8,31.4-6.9,47.2-8.3c0.1,0,0.1,0,0.2,0c3.5,4,6.8,8,10,11.9H14.8C14.8,174.5,14.8,174.5,14.7,174.4z M27.5,141.8   C27.4,141.8,27.4,141.8,27.5,141.8c-0.2,0-0.4,0-0.5,0.1c-0.1,0-0.2,0-0.3,0.1c-0.1,0-0.3,0.1-0.4,0.1c-0.1,0-0.2,0.1-0.3,0.1   c-0.1,0.1-0.2,0.1-0.3,0.2c-0.1,0.1-0.2,0.1-0.3,0.2c-0.1,0.1-0.2,0.2-0.3,0.2c0,0-0.1,0.1-0.1,0.1l-10.6-25.6   C23.5,123.9,33.4,133,43,143C38.5,142,33.5,141.6,27.5,141.8z M79.3,119.7c1.4-1.4,3.1-3,4.4-4.2c0.3-0.3,0.6-0.6,0.9-0.8   c12.2,15.7,22.4,35.6,30.7,59.9H83.6C86,159.1,84.2,135.8,79.3,119.7z M116.8,109.9c8.8,22.5,10.6,41.9,5.6,60.5   c-11.7-33.6-27-59-46.3-77C89.2,96.1,102.6,101.6,116.8,109.9z M200.5,144.6c16.3,12.8,30.2,25.5,43,37.7h-64   C190,172,199.5,159.4,200.5,144.6z M259,129.6c-1,19.7-4.4,35.6-8,48.8c-14.1-13.5-29.5-27.7-47.9-42   C222.3,125.1,240.6,122.9,259,129.6z M192.1,137.3c2.3,13.9-4.6,27.1-23,43.8c-7-47.2-25.1-86.8-54-118.1c8.6,3,17,7.1,25,12.2   C162.6,89.4,180.5,110.9,192.1,137.3z M107.1,66.1c8.8,9.2,16.6,19.1,23.3,29.7c-0.1,0-0.1,0.1-0.2,0.1c-1.6,0.9-6.4,3.8-10.4,6.6   c-2.8-1.6-5.6-3.2-8.4-4.6L107.1,66.1z M67.3,96.3c4.3,3.7,8.4,7.8,12.2,12.2c-0.3,0.3-0.8,0.7-1.2,1.1c-1.4,1.3-3,2.8-4.4,4.2   c-1.9-0.9-3.9-1.7-5.9-2.4L67.3,96.3z M71.5,121.6c4.1,13.3,6,32.8,4.8,47c-16.6-20.1-38-44.1-57.5-57.8   C34.8,110.8,55.2,114.1,71.5,121.6z M26.9,152.8l2.6-3c9.8-0.1,16.1,1.4,22.9,5.9c-10,1.2-20.3,2.9-29.9,5L26.9,152.8z"/><path d="M255.9,197.8H51.8c-2.2,0-4,1.8-4,4s1.8,4,4,4h204.1c2.2,0,4-1.8,4-4S258.1,197.8,255.9,197.8z"/><path d="M37.4,197.8h-4.2c-2.2,0-4,1.8-4,4s1.8,4,4,4h4.2c2.2,0,4-1.8,4-4S39.6,197.8,37.4,197.8z"/><path d="M19.4,197.8h-0.2c-2.2,0-4,1.8-4,4s1.8,4,4,4h0.2c2.2,0,4-1.8,4-4S21.6,197.8,19.4,197.8z"/></g></svg>